<?xml version="1.0" standalone="no"?>
<!DOCTYPE svg PUBLIC "-//W3C//DTD SVG 20010904//EN"
 "http://www.w3.org/TR/2001/REC-SVG-20010904/DTD/svg10.dtd">
<svg version="1.0" xmlns="http://www.w3.org/2000/svg"
 width="819.000000pt" height="1208.000000pt" viewBox="0 0 819.000000 1208.000000"
 preserveAspectRatio="xMidYMid meet">

<g transform="translate(0.000000,1208.000000) scale(0.100000,-0.100000)"
fill="#000000" stroke="none">
<path d="M4020 11219 c-19 -4 -60 -13 -90 -19 -30 -7 -62 -17 -70 -24 -8 -7
-44 -28 -80 -47 -109 -56 -194 -126 -395 -324 -164 -162 -294 -322 -295 -361
0 -6 -6 -17 -14 -23 -8 -7 -31 -46 -52 -89 -20 -42 -45 -88 -54 -102 -9 -14
-35 -68 -57 -120 -89 -207 -136 -454 -134 -698 0 -74 4 -139 8 -145 4 -7 10
-43 14 -82 l6 -70 -41 -55 c-87 -114 -136 -228 -136 -317 0 -66 38 -201 76
-270 19 -34 34 -69 34 -79 0 -9 16 -31 36 -48 31 -27 35 -35 26 -51 -6 -11
-13 -33 -17 -48 -3 -17 -15 -31 -30 -37 -36 -14 -30 -30 11 -30 24 0 34 -4 31
-12 -2 -8 -22 -13 -50 -12 -37 0 -47 -3 -47 -16 0 -28 -33 -49 -85 -53 -53 -5
-71 -26 -59 -73 5 -19 1 -26 -21 -34 -24 -9 -32 -7 -52 12 -20 19 -25 20 -38
7 -9 -8 -12 -23 -9 -37 8 -27 24 -29 31 -3 4 17 8 18 29 9 32 -15 25 -32 -13
-36 -25 -2 -34 -10 -42 -33 -5 -16 -8 -37 -5 -47 4 -11 3 -13 -3 -5 -13 18
-53 4 -53 -18 0 -32 31 -35 56 -6 27 32 38 22 22 -20 -14 -38 -6 -60 28 -75
22 -10 28 -10 32 0 2 6 19 12 37 12 27 0 34 4 37 23 2 12 6 17 10 11 4 -6 1
-22 -6 -36 -8 -16 -10 -31 -5 -39 14 -23 10 -32 -12 -26 -12 3 -28 0 -36 -9
-16 -15 -38 -19 -29 -5 4 5 4 16 0 24 -4 12 -10 10 -30 -10 -14 -14 -31 -22
-39 -20 -7 3 -16 -1 -19 -8 -3 -8 -12 -12 -20 -9 -47 18 -78 -56 -32 -78 35
-16 56 -4 56 32 0 42 34 42 49 -1 6 -17 9 -35 6 -39 -11 -17 14 -59 37 -62 20
-3 23 -8 20 -45 -3 -33 1 -44 19 -57 16 -11 27 -12 40 -5 14 7 30 4 61 -12 24
-12 45 -25 48 -29 10 -14 51 -31 60 -25 6 4 17 -1 26 -9 20 -21 64 -21 64 -1
0 8 7 15 16 15 8 0 12 5 8 11 -4 7 1 10 12 7 11 -2 24 -13 29 -26 7 -17 16
-21 30 -17 44 12 105 17 122 10 48 -21 113 -9 113 20 0 8 4 15 10 15 5 0 23
18 39 40 28 39 29 39 46 20 21 -23 85 -168 85 -192 0 -9 6 -23 14 -31 16 -15
33 -73 47 -152 4 -27 12 -72 17 -100 23 -119 1 -324 -41 -402 -69 -128 -162
-237 -233 -274 -51 -27 -133 -57 -164 -61 -19 -2 -25 -9 -25 -27 0 -20 8 -27
50 -40 50 -16 50 -17 102 -119 28 -56 63 -135 77 -175 13 -39 43 -121 66 -182
23 -60 44 -119 47 -130 8 -28 91 -259 117 -324 23 -58 47 -73 95 -61 19 4 28
18 42 60 86 271 129 398 202 608 47 134 93 254 101 268 21 31 53 50 97 58 21
4 43 14 50 22 26 32 -10 40 -175 42 -129 1 -158 -2 -171 -15 -21 -21 -2 -43
36 -43 16 0 38 -9 50 -21 19 -19 21 -30 16 -79 -7 -86 -148 -489 -174 -497 -4
-2 -19 25 -31 59 -13 35 -37 99 -54 143 -36 92 -94 253 -110 306 -14 46 -4 89
21 89 32 0 51 11 51 30 0 25 -19 30 -108 30 -76 0 -77 1 -46 16 53 26 146 107
165 144 71 133 90 188 105 300 9 63 15 168 14 232 -1 109 1 117 17 111 10 -3
23 -9 28 -13 30 -22 227 -91 340 -120 125 -32 135 -32 270 -27 180 8 370 46
481 98 34 16 76 32 93 35 l32 7 -5 -115 c-4 -68 -2 -135 5 -164 6 -27 13 -68
16 -91 3 -24 9 -43 13 -43 5 0 11 -14 15 -30 16 -71 146 -303 181 -323 30 -17
10 -24 -82 -30 -53 -3 -101 -10 -107 -16 -16 -16 9 -39 46 -43 25 -2 36 -11
50 -38 16 -32 17 -68 15 -435 -3 -464 2 -439 -90 -459 -29 -7 -37 -29 -15 -43
16 -11 569 -4 581 8 17 16 -14 36 -64 42 -120 14 -122 22 -124 376 -1 276 0
288 23 356 51 152 119 225 210 225 69 0 77 -61 9 -74 -63 -12 -108 -70 -108
-139 0 -105 151 -175 235 -109 56 44 70 72 73 148 2 40 -1 89 -8 109 -16 47
-66 104 -107 121 -43 18 -114 18 -161 -2 -38 -14 -43 -14 -123 12 -46 15 -97
35 -113 43 -35 20 -103 143 -159 291 l-40 105 0 170 c0 160 2 175 28 250 29
83 56 145 77 180 7 11 22 35 33 52 11 18 24 33 28 33 4 0 25 -17 46 -37 21
-21 74 -57 118 -80 44 -23 88 -51 97 -62 16 -17 27 -19 82 -14 58 5 67 4 88
-16 34 -32 68 -25 82 18 9 28 20 37 62 53 29 11 52 24 52 29 0 5 6 9 14 9 39
0 169 167 192 248 9 31 21 52 30 52 8 0 14 10 14 25 0 14 -4 25 -9 25 -6 0 -9
18 -8 41 1 22 -3 43 -8 47 -6 4 -11 33 -11 64 -1 43 -10 75 -38 133 -20 43
-36 83 -36 91 0 8 -7 14 -15 14 -8 0 -29 13 -47 28 -59 50 -90 65 -144 67 -54
3 -74 10 -74 26 0 6 7 6 19 -1 25 -13 41 -13 41 0 0 6 -9 10 -19 10 -11 0 -23
4 -26 10 -4 6 6 7 26 3 27 -5 31 -3 27 13 -2 10 -9 20 -16 20 -6 1 -15 2 -19
3 -3 0 2 10 12 21 12 13 23 17 34 11 9 -5 22 -6 28 -4 29 10 153 227 153 267
0 6 8 27 19 46 10 19 25 71 34 115 16 80 16 81 -9 165 -15 47 -33 110 -40 140
-8 30 -19 69 -24 85 -7 23 -4 56 11 130 27 131 27 283 -1 419 -11 56 -31 165
-45 244 -59 332 -158 557 -342 774 -179 211 -560 505 -748 577 -126 48 -185
63 -267 68 -131 8 -130 9 -156 -94 -12 -48 -27 -155 -33 -236 -6 -82 -15 -163
-20 -179 -4 -17 -6 -35 -3 -40 3 -4 5 -34 5 -66 -1 -117 50 -228 171 -376 53
-65 133 -130 200 -162 29 -14 60 -29 68 -35 8 -5 26 -14 40 -20 59 -24 151
-74 162 -86 6 -7 16 -13 22 -13 6 0 22 -9 36 -20 14 -11 31 -20 38 -20 23 0
103 -61 202 -154 52 -49 111 -99 130 -111 147 -96 271 -335 292 -565 11 -126
3 -322 -14 -354 -6 -12 -13 -43 -14 -71 -4 -62 -18 -149 -33 -195 -6 -19 -11
-48 -11 -65 0 -16 -16 -64 -34 -105 -33 -75 -34 -75 -72 -75 -35 0 -40 -3 -48
-31 -7 -22 -20 -35 -48 -47 -21 -10 -42 -17 -47 -17 -4 0 -28 -14 -52 -32 -25
-18 -57 -32 -74 -32 -28 -1 -30 -4 -36 -46 -7 -59 -32 -106 -66 -122 -34 -16
-41 -43 -17 -69 21 -23 17 -30 -13 -18 -17 6 -23 16 -23 38 0 55 -71 67 -84
15 -5 -20 -1 -31 16 -45 12 -11 23 -32 25 -47 7 -61 13 -72 38 -72 17 0 25 -6
25 -17 0 -13 3 -14 12 -5 14 14 75 16 80 3 2 -5 18 -12 36 -16 24 -5 32 -3 32
8 0 8 13 17 30 21 17 3 30 12 30 20 0 16 18 31 26 23 3 -3 0 -14 -8 -26 -10
-16 -10 -27 0 -53 8 -23 9 -35 1 -45 -15 -18 -69 -17 -69 1 0 26 -24 37 -53
23 -15 -6 -27 -15 -27 -19 0 -4 -18 -11 -40 -14 -34 -6 -40 -10 -40 -31 0 -28
-89 -201 -132 -255 -16 -21 -62 -54 -106 -79 -42 -23 -81 -48 -85 -56 -10 -17
-193 -108 -237 -118 -18 -4 -52 -16 -77 -27 -41 -18 -62 -20 -207 -16 -150 4
-167 6 -246 35 -245 90 -315 123 -383 183 -42 37 -137 150 -137 163 0 3 -18
35 -40 71 -22 36 -40 74 -40 85 0 29 -14 33 -33 10 -21 -24 -28 -24 -62 3
l-28 22 23 18 c12 10 37 18 55 18 27 0 37 6 55 35 12 19 18 40 14 46 -4 7 -3
9 4 5 14 -9 23 7 13 23 -7 10 -12 10 -29 0 -12 -7 -24 -10 -28 -6 -11 10 16
37 37 37 15 0 19 7 19 31 0 23 -10 41 -41 70 -40 39 -41 41 -35 89 6 48 6 51
-36 93 -24 24 -60 67 -80 95 -20 27 -61 67 -90 87 -131 91 -138 96 -138 119 0
13 -7 43 -15 67 -15 40 -23 101 -42 302 -7 79 14 322 33 387 8 25 14 59 14 76
0 39 58 206 105 302 62 128 190 273 343 391 138 106 189 143 241 177 80 53
245 195 329 283 85 89 157 199 171 262 35 156 44 232 36 317 -4 48 -7 107 -6
132 1 25 -2 63 -8 85 -5 22 -13 57 -16 78 -5 32 -12 41 -40 53 -37 15 -128 17
-185 3z m-1205 -2419 c17 -103 41 -221 61 -288 24 -79 24 -102 3 -102 -16 0
-85 158 -102 235 -14 64 -14 89 -1 153 5 26 36 27 39 2z m3045 -121 c0 -61
-110 -336 -142 -355 -8 -5 -9 -1 -3 12 25 59 44 127 54 189 15 91 42 188 56
197 12 9 35 -19 35 -43z m-2952 -411 c16 -16 15 -45 -2 -51 -19 -8 -42 18 -25
29 9 5 7 11 -6 21 -18 12 -18 13 1 13 11 0 25 -5 32 -12z m-43 -58 c-3 -5 -12
-10 -18 -10 -7 0 -6 4 3 10 19 12 23 12 15 0z m127 -27 c38 -34 9 -89 -41 -78
-43 9 -39 26 4 20 32 -4 35 -2 35 20 0 21 -5 25 -29 25 -16 0 -39 -10 -55 -25
-15 -14 -31 -25 -36 -25 -17 0 -30 -38 -24 -67 5 -24 1 -33 -20 -46 -29 -19
-46 -22 -46 -7 0 6 5 10 11 10 7 0 20 10 31 22 18 21 18 23 1 36 -14 10 -19
10 -22 0 -6 -21 -44 -60 -68 -69 -36 -14 -29 -50 17 -92 22 -19 40 -41 40 -48
0 -7 -8 -5 -21 7 -17 15 -22 16 -29 4 -5 -8 -6 -18 -4 -22 3 -4 -2 -8 -11 -8
-9 0 -13 5 -10 10 3 6 1 10 -4 10 -6 0 -11 -7 -11 -15 0 -8 -4 -15 -8 -15 -5
0 -9 18 -10 40 -1 22 3 40 8 40 6 0 10 -9 10 -20 0 -21 15 -27 25 -10 9 15
-15 46 -46 57 -48 18 -28 89 21 76 23 -6 28 15 8 35 -9 9 -7 17 10 35 12 13
22 29 22 35 0 7 12 12 26 12 14 0 37 9 51 20 19 15 29 17 39 9 13 -10 18 -9
79 24 37 20 35 20 57 0z m2715 -38 c-23 -22 -33 -18 -12 5 10 11 20 18 23 16
2 -3 -3 -12 -11 -21z m-2459 -65 c2 -42 -12 -55 -21 -20 -6 23 2 60 13 60 3 0
7 -18 8 -40z m-288 -29 c0 -6 -4 -13 -10 -16 -5 -3 -10 1 -10 9 0 9 5 16 10
16 6 0 10 -4 10 -9z m2750 -11 c50 -2 63 -62 16 -74 -12 -3 -33 -15 -46 -26
-27 -24 -53 -26 -70 -5 -10 12 -7 20 19 47 22 22 29 38 25 51 -5 17 -3 19 17
14 13 -4 31 -7 39 -7z m-260 -30 c0 -5 -2 -10 -4 -10 -3 0 -8 5 -11 10 -3 6
-1 10 4 10 6 0 11 -4 11 -10z m384 -6 c18 -7 22 -59 6 -69 -6 -3 -10 5 -10 19
0 14 -4 28 -10 31 -10 6 -14 25 -6 25 2 0 11 -3 20 -6z m-2598 -39 c14 -22 15
-30 4 -50 -15 -28 -30 -33 -30 -10 0 8 -9 19 -20 25 -19 10 -27 40 -13 53 14
15 43 6 59 -18z m2205 -16 c14 -27 -6 -69 -33 -69 -14 0 -17 5 -12 24 3 13 1
34 -6 45 -9 19 -8 21 14 21 16 0 30 -8 37 -21z m354 -34 c0 -26 -4 -30 -28
-33 -19 -2 -33 3 -42 14 -10 15 -16 16 -28 6 -9 -8 -18 -9 -21 -4 -12 20 52
53 94 49 21 -2 25 -7 25 -32z m128 5 c4 -15 0 -20 -14 -20 -10 0 -19 2 -19 4
0 2 -3 11 -6 20 -4 11 0 16 14 16 11 0 22 -8 25 -20z m-2876 -12 c-3 -8 -6 -5
-6 6 -1 11 2 17 5 13 3 -3 4 -12 1 -19z m-157 -23 c-7 -9 -15 -13 -17 -11 -7
7 7 26 19 26 6 0 6 -6 -2 -15z m2960 -1 c0 -14 -3 -14 -15 -4 -8 7 -15 14 -15
16 0 2 7 4 15 4 8 0 15 -7 15 -16z m130 -12 c25 -24 16 -62 -15 -62 -12 0 -30
9 -40 20 -10 11 -13 20 -7 20 6 0 15 -8 21 -17 9 -17 11 -17 28 0 17 17 17 19
1 31 -17 13 -24 26 -13 26 3 0 14 -8 25 -18z m-306 1 c4 -5 22 -8 39 -8 30 0
32 -3 33 -35 2 -48 -3 -52 -35 -35 -16 8 -31 12 -34 8 -4 -3 -16 -6 -29 -7
-15 -1 -24 -9 -28 -26 -4 -15 -9 -20 -13 -13 -8 13 1 43 14 43 5 0 9 5 9 11 0
5 -4 7 -10 4 -6 -3 -10 4 -10 16 0 33 44 61 64 42z m211 -3 c-3 -5 -11 -10
-16 -10 -6 0 -7 5 -4 10 3 6 11 10 16 10 6 0 7 -4 4 -10z m-445 -9 c0 -5 -7
-14 -15 -21 -16 -14 -18 -10 -9 14 6 17 24 22 24 7z m-2489 -44 c-8 -8 -11 -7
-11 4 0 20 13 34 18 19 3 -7 -1 -17 -7 -23z m184 13 c-3 -5 -13 -10 -21 -10
-8 0 -12 5 -9 10 3 6 13 10 21 10 8 0 12 -4 9 -10z m2380 -4 c10 -1 26 -14 35
-29 14 -26 14 -29 -4 -42 -14 -11 -23 -12 -32 -4 -7 6 -18 8 -24 4 -6 -4 -13
6 -16 25 -4 17 -11 33 -15 36 -19 11 -8 25 14 18 12 -4 31 -7 42 -8z m315 4
c0 -5 -2 -10 -4 -10 -3 0 -8 5 -11 10 -3 6 -1 10 4 10 6 0 11 -4 11 -10z
m-3245 -19 c-3 -6 -11 -11 -17 -11 -6 0 -6 6 2 15 14 17 26 13 15 -4z m2658 9
c-13 -5 -23 -16 -23 -25 0 -8 -4 -15 -10 -15 -17 0 -11 38 8 43 31 8 48 6 25
-3z m-2473 -24 c0 -24 -17 -28 -23 -6 -3 13 0 20 9 20 8 0 14 -6 14 -14z m550
-3 c18 -16 18 -18 3 -35 -13 -15 -14 -23 -5 -44 15 -31 16 -67 2 -59 -16 10
-40 -14 -40 -38 0 -11 7 -28 16 -38 14 -16 13 -17 -17 -15 -45 3 -63 30 -44
66 8 15 11 30 8 34 -4 3 2 13 13 21 18 13 18 16 3 42 -14 26 -14 30 5 55 25
32 30 33 56 11z m2590 -8 c0 -20 -17 -28 -46 -21 -32 8 -31 20 4 32 31 12 42
9 42 -11z m-2776 -11 c8 -21 8 -24 -3 -24 -5 0 -11 9 -14 20 -6 24 8 27 17 4z
m2173 -19 c22 -6 22 -6 2 -26 -10 -10 -19 -23 -19 -29 0 -19 -27 -10 -40 14
-16 31 -6 59 17 52 10 -2 28 -7 40 -11z m-2441 -40 c-3 -8 -10 -15 -16 -15 -6
0 -8 5 -5 10 3 6 1 10 -4 10 -18 0 -12 18 7 22 19 4 26 -6 18 -27z m37 15 c-5
-20 -21 -36 -27 -29 -2 2 0 14 5 27 10 27 29 29 22 2z m2697 5 c0 -8 -4 -15
-10 -15 -5 0 -10 7 -10 15 0 8 5 15 10 15 6 0 10 -7 10 -15z m140 -3 c0 -10 5
-23 12 -30 7 -7 20 -12 30 -12 13 0 18 -8 18 -28 0 -26 -3 -28 -32 -27 -18 1
-42 6 -53 10 -19 9 -19 8 -2 -9 11 -12 27 -16 43 -13 16 3 23 0 21 -7 -2 -6
-17 -11 -33 -11 -16 0 -35 -4 -41 -8 -21 -13 -36 3 -17 18 16 11 14 14 -19 26
-38 13 -49 29 -22 29 8 0 15 7 15 15 0 8 4 15 9 15 4 0 7 -11 5 -26 -2 -21 0
-23 12 -13 8 6 14 20 14 31 0 24 18 58 30 58 6 0 10 -8 10 -18z m-110 -12 c0
-5 -4 -10 -10 -10 -5 0 -9 -6 -7 -12 1 -8 -10 -14 -28 -15 -16 -1 -24 0 -17 3
6 3 10 10 6 15 -3 5 0 9 5 9 6 0 11 -6 12 -12 0 -7 5 -3 11 10 11 22 28 30 28
12z m400 -20 c0 -5 -9 -10 -20 -10 -11 0 -20 5 -20 10 0 6 9 10 20 10 11 0 20
-4 20 -10z m-3006 -6 c9 -3 16 -13 16 -21 0 -12 3 -13 15 -3 11 9 23 8 55 -6
40 -18 48 -28 31 -38 -18 -12 -18 -66 1 -83 23 -21 23 -43 -1 -43 -10 0 -24
-6 -31 -14 -14 -17 -40 -10 -40 10 0 8 -7 17 -15 20 -21 8 -19 42 5 89 22 43
25 65 10 65 -5 0 -10 -6 -10 -14 0 -7 -8 -20 -17 -27 -13 -11 -15 -11 -9 -1 6
10 0 12 -26 7 -30 -6 -37 -3 -51 19 -22 33 -22 34 11 39 15 2 30 5 34 6 3 0
13 -2 22 -5z m2470 -3 c3 -5 -1 -14 -9 -21 -8 -7 -15 -20 -15 -28 0 -12 -3
-13 -12 -4 -9 9 -9 18 0 37 12 25 26 32 36 16z m-362 -23 c-7 -7 -12 -8 -12
-2 0 14 12 26 19 19 2 -3 -1 -11 -7 -17z m803 -18 c-6 -9 -9 -9 -16 1 -10 17
0 34 13 21 6 -6 7 -16 3 -22z m-665 6 c0 -24 -14 -26 -40 -5 l-25 19 33 0 c21
0 32 -5 32 -14z m-2380 -26 c22 -22 28 -84 8 -96 -8 -5 -9 -2 -5 10 11 28 -3
66 -23 66 -22 0 -34 15 -25 30 9 15 23 12 45 -10z m2698 -47 c16 -11 16 -12 0
-13 -10 0 -18 5 -18 10 0 6 -7 10 -15 10 -18 0 -19 14 -2 41 11 19 12 19 15
-8 2 -15 11 -33 20 -40z m292 38 c0 -5 -13 -14 -30 -20 -24 -8 -30 -7 -30 4 0
12 17 21 48 24 6 0 12 -3 12 -8z m110 -16 c23 -24 23 -25 5 -45 -10 -11 -24
-20 -32 -20 -7 0 -13 -7 -13 -16 0 -13 -7 -15 -29 -11 -20 4 -31 2 -35 -8 -6
-17 -36 -21 -36 -5 0 6 5 10 10 10 6 0 10 4 10 9 0 5 -9 7 -20 4 -31 -8 -27
35 4 47 13 5 35 20 49 34 33 33 57 33 87 1z m-466 -16 c-8 -13 -30 -11 -43 4
-8 11 -5 13 19 9 16 -2 27 -8 24 -13z m-2824 1 c0 -5 -4 -10 -10 -10 -5 0 -10
-7 -10 -15 0 -8 9 -15 20 -15 11 0 20 -2 20 -4 0 -14 -14 -36 -22 -36 -5 0 -7
4 -3 9 3 5 -6 18 -19 29 -23 18 -24 20 -8 35 18 19 32 22 32 7z m3353 3 c-7
-2 -19 -2 -25 0 -7 3 -2 5 12 5 14 0 19 -2 13 -5z m-3303 -17 c0 -21 -21 -31
-31 -15 -14 22 -11 29 11 29 11 0 20 -6 20 -14z m2933 -18 c5 -18 9 -19 21 -9
8 7 19 10 25 7 5 -3 11 0 14 6 2 7 7 10 11 7 10 -10 -4 -36 -22 -43 -9 -3 -23
-9 -29 -12 -7 -3 -13 1 -13 9 0 8 -7 20 -15 27 -17 14 -20 30 -6 30 5 0 11
-10 14 -22z m370 2 c-5 -20 -23 -26 -36 -13 -4 3 3 12 16 19 12 6 23 12 24 13
0 1 -1 -8 -4 -19z m-3283 -12 c0 -7 -7 -22 -15 -32 -22 -29 -40 -7 -19 22 17
24 34 29 34 10z m2850 -17 c0 -22 -19 -41 -42 -41 -24 0 -23 12 2 28 11 7 20
19 20 28 0 8 5 12 10 9 6 -3 10 -14 10 -24z m-2374 -14 c27 -15 15 -29 -18
-22 -30 7 -47 20 -48 37 0 11 45 14 49 3 2 -5 10 -14 17 -18z m-366 8 c7 -8 9
-26 6 -42 -4 -18 -1 -36 8 -48 20 -26 20 -45 1 -45 -8 0 -15 -4 -15 -10 0 -12
-30 -13 -49 -1 -18 12 -6 46 22 59 22 11 22 11 -3 11 -47 2 -66 44 -34 75 19
20 48 20 64 1z m3121 -15 c10 -6 19 -16 19 -22 0 -7 -5 -6 -15 2 -13 11 -14
10 -9 -4 9 -23 -13 -20 -26 3 -17 34 -7 41 31 21z m-3354 -26 c-3 -3 -12 -4
-19 -1 -8 3 -5 6 6 6 11 1 17 -2 13 -5z m738 -4 c-11 -5 -27 -9 -35 -9 -9 0
-8 4 5 9 11 5 27 9 35 9 9 0 8 -4 -5 -9z m1882 4 c-3 -3 -12 -4 -19 -1 -8 3
-5 6 6 6 11 1 17 -2 13 -5z m703 -20 c0 -8 7 -14 15 -14 8 0 15 5 15 10 0 6 7
10 17 10 14 0 14 -2 -2 -20 -10 -11 -24 -20 -31 -20 -16 0 -45 40 -38 52 8 12
24 0 24 -18z m-661 -21 c11 -8 12 -12 4 -13 -16 0 -17 -20 -2 -20 33 0 52 -63
27 -88 -32 -32 -86 8 -73 55 10 36 11 42 14 78 2 18 5 24 8 15 4 -8 13 -20 22
-27z m163 -5 c-7 -7 -10 -5 -7 8 5 29 6 30 12 16 3 -8 1 -18 -5 -24z m-2072
12 c-20 -13 -43 -13 -35 0 3 6 16 10 28 10 18 0 19 -2 7 -10z m1990 -2 c0 -4
-12 -8 -26 -8 -14 0 -23 4 -19 9 6 11 45 10 45 -1z m385 -7 c-3 -6 -11 -11
-17 -11 -6 0 -6 6 2 15 14 17 26 13 15 -4z m-112 -99 c-8 -31 -13 -37 -34 -34
-13 1 -31 5 -39 8 -8 4 -31 8 -51 10 -31 3 -38 0 -44 -19 -4 -15 -8 -18 -12
-8 -8 20 18 91 35 91 8 0 26 -13 41 -29 26 -28 29 -29 46 -13 16 16 17 16 6
-5 -10 -20 -9 -23 9 -23 23 0 27 28 8 49 -11 11 -10 13 4 8 12 -4 15 -2 12 8
-8 20 -37 11 -52 -16 l-13 -24 3 30 c4 38 44 51 71 23 15 -16 17 -26 10 -56z
m-273 48 c0 -5 -5 -10 -11 -10 -5 0 -7 5 -4 10 3 6 8 10 11 10 2 0 4 -4 4 -10z
m475 -57 c9 4 15 1 15 -7 0 -21 -37 -26 -54 -7 -24 26 -21 48 4 26 10 -9 26
-15 35 -12z m-441 -8 c13 -19 14 -30 6 -45 -15 -28 -37 -25 -55 9 -28 55 16
87 49 36z m191 -47 c14 -6 25 -18 25 -25 0 -8 -4 -11 -10 -8 -5 3 -10 1 -10
-4 0 -6 6 -11 12 -11 7 0 3 -10 -9 -22 -19 -19 -26 -20 -48 -10 -27 13 -35 58
-13 80 15 15 21 15 53 0z m105 -11 c0 -16 -9 -26 -29 -34 -40 -15 -50 -3 -11
13 16 7 30 20 30 29 0 8 2 15 5 15 3 0 5 -10 5 -23z m-335 -1118 c4 -5 0 -18
-8 -27 -8 -9 -22 -32 -31 -49 -25 -49 -36 -40 -36 27 l0 60 34 0 c19 0 38 -5
41 -11z"/>
<path d="M5665 7990 c-3 -5 -1 -10 4 -10 6 0 11 5 11 10 0 6 -2 10 -4 10 -3 0
-8 -4 -11 -10z"/>
<path d="M5907 7568 c-3 -9 4 -15 20 -16 16 -1 23 3 20 11 -5 17 -33 21 -40 5z"/>
<path d="M2600 8180 c0 -5 4 -10 9 -10 6 0 13 5 16 10 3 6 -1 10 -9 10 -9 0
-16 -4 -16 -10z"/>
<path d="M4180 7900 c-83 -16 -200 -56 -250 -86 -14 -8 -44 -24 -67 -36 -34
-17 -63 -51 -63 -73 0 -4 100 -82 129 -100 8 -5 20 -15 26 -21 24 -25 94 -73
145 -100 51 -27 63 -29 165 -28 131 0 232 22 326 70 36 19 70 34 75 34 5 0 28
9 49 20 22 12 48 19 59 16 11 -3 26 4 37 17 17 21 17 23 -9 50 -39 42 -181
151 -227 175 -71 37 -125 55 -168 58 -23 2 -65 7 -92 11 -37 7 -74 5 -135 -7z"/>
<path d="M775 6673 c-22 -3 -44 -8 -49 -13 -17 -17 15 -40 55 -40 51 0 85 -14
100 -42 9 -17 13 -181 17 -640 2 -340 1 -633 -2 -652 -9 -48 -59 -94 -112
-102 -53 -8 -77 -24 -65 -43 7 -11 68 -12 372 -5 348 9 364 10 364 28 0 15
-14 23 -60 36 -86 23 -98 33 -118 87 -15 42 -17 83 -15 328 l3 280 31 3 c72 7
110 -37 144 -168 87 -333 134 -469 178 -522 14 -16 51 -42 83 -59 143 -72 332
-5 369 131 17 65 24 177 10 185 -19 12 -29 -6 -41 -70 -17 -92 -58 -123 -94
-69 -17 27 -26 51 -94 270 -26 84 -54 152 -79 190 -42 64 -107 119 -153 129
-51 11 -40 22 46 44 98 26 162 66 215 132 59 75 73 122 68 231 -7 150 -59 233
-185 297 -90 45 -147 50 -559 54 -214 2 -407 2 -429 0z m712 -82 c86 -43 108
-106 100 -288 -5 -128 -7 -136 -40 -196 -47 -87 -104 -126 -202 -140 -41 -6
-78 -7 -82 -3 -12 11 -4 565 8 603 6 20 20 36 37 42 40 16 132 6 179 -18z"/>
<path d="M5961 6648 c-19 -12 -48 -40 -64 -60 -25 -31 -30 -46 -30 -92 0 -45
5 -62 28 -92 41 -53 81 -74 144 -74 64 0 110 25 142 76 18 29 21 46 17 104 -6
106 -48 149 -153 158 -40 3 -57 -1 -84 -20z"/>
<path d="M4383 6209 c-69 -7 -171 -51 -220 -96 -119 -111 -183 -275 -183 -471
0 -160 42 -278 133 -379 51 -55 141 -115 192 -128 228 -55 404 9 479 175 48
107 46 188 -6 239 -41 40 -86 48 -142 27 -59 -23 -87 -56 -93 -109 -7 -55 14
-97 62 -127 39 -24 43 -45 20 -90 -36 -69 -96 -86 -171 -49 -93 45 -139 136
-157 314 -6 61 -8 118 -5 126 5 13 45 17 258 23 139 3 257 9 263 13 13 8 3
196 -13 243 -26 78 -71 160 -106 195 -72 72 -185 106 -311 94z m106 -85 c12
-15 29 -54 40 -88 22 -73 38 -300 22 -310 -6 -4 -65 -9 -131 -12 l-120 -4 0
87 c0 115 14 199 45 264 41 89 103 116 144 63z"/>
<path d="M6759 6209 c-65 -7 -170 -54 -215 -96 -40 -37 -106 -128 -128 -177
-53 -115 -72 -330 -41 -451 65 -248 284 -399 528 -365 171 25 290 155 291 321
1 69 -15 100 -64 128 -46 26 -73 26 -127 1 -102 -46 -111 -173 -15 -232 18
-11 32 -28 32 -39 0 -29 -26 -74 -56 -98 -76 -59 -205 17 -256 151 -19 51 -45
265 -35 291 4 11 56 15 258 21 140 3 258 11 262 15 12 12 10 133 -4 201 -6 30
-28 92 -50 137 -30 63 -50 90 -85 117 -83 63 -182 88 -295 75z m114 -88 c14
-17 31 -58 40 -98 21 -88 33 -279 19 -296 -7 -8 -46 -12 -129 -12 l-118 0 -3
80 c-4 104 10 190 44 265 42 95 99 118 147 61z"/>
<path d="M2473 6191 c-184 -67 -295 -246 -319 -516 -22 -246 142 -499 351
-543 98 -21 124 -23 192 -12 174 27 293 156 297 321 2 120 -93 178 -206 125
-93 -45 -92 -182 3 -231 35 -19 37 -44 8 -92 -54 -87 -158 -80 -242 17 -51 59
-78 153 -84 286 l-6 111 258 6 c141 4 261 9 266 13 16 9 10 138 -10 216 -24
95 -68 183 -113 226 -19 19 -63 47 -98 63 -56 25 -77 28 -155 28 -62 0 -106
-5 -142 -18z m192 -67 c41 -45 57 -108 62 -258 4 -91 2 -140 -5 -145 -6 -3
-64 -6 -129 -6 l-118 0 -3 49 c-5 79 15 208 44 280 41 102 99 134 149 80z"/>
<path d="M6065 6194 c-27 -8 -90 -14 -139 -15 -95 0 -136 -10 -136 -33 0 -16
21 -26 56 -26 15 0 30 -10 41 -27 17 -25 18 -62 18 -446 l0 -419 -24 -19 c-13
-10 -36 -19 -52 -19 -32 0 -49 -24 -31 -42 8 -8 91 -13 239 -15 185 -3 232 -1
247 10 27 20 14 47 -23 47 -16 0 -39 9 -52 19 l-24 19 -1 479 c-1 263 -2 484
-3 491 -1 15 -50 14 -116 -4z"/>
<path d="M6633 5040 c-65 -39 -82 -134 -41 -218 23 -48 120 -157 200 -223 l48
-41 38 28 c58 44 166 155 195 201 86 137 37 273 -98 273 -39 0 -100 -47 -117
-89 l-10 -26 -16 25 c-9 14 -32 40 -50 58 -27 26 -42 32 -75 32 -24 0 -56 -8
-74 -20z"/>
<path d="M2266 5043 c-37 -4 -38 -5 -17 -19 17 -12 21 -25 21 -70 0 -50 -10
-68 -25 -44 -3 6 -21 10 -39 10 -74 0 -120 -118 -85 -218 19 -55 84 -82 123
-51 20 16 25 17 30 4 4 -10 20 -15 51 -15 44 0 60 12 30 24 -13 4 -15 36 -15
196 0 175 -1 190 -17 188 -10 -1 -35 -3 -57 -5z m-8 -174 c17 -31 11 -155 -9
-186 -34 -55 -59 -14 -59 94 0 110 34 156 68 92z"/>
<path d="M3230 5040 c-28 -5 -31 -8 -17 -14 13 -7 17 -21 17 -69 0 -47 -3 -58
-12 -49 -22 22 -75 14 -103 -15 -57 -62 -58 -169 -2 -230 25 -27 94 -33 103
-8 4 8 10 15 15 15 5 0 9 -7 9 -15 0 -11 12 -15 45 -15 25 0 45 5 45 10 0 6
-4 10 -10 10 -6 0 -10 72 -10 195 l0 195 -22 -1 c-13 -1 -39 -5 -58 -9z m-18
-157 c14 -13 18 -31 18 -92 0 -118 -40 -169 -68 -86 -20 59 -3 195 25 195 4 0
15 -7 25 -17z"/>
<path d="M4731 5041 c-31 -5 -33 -7 -18 -20 15 -12 17 -37 17 -183 0 -141 -2
-170 -15 -174 -35 -14 -10 -24 58 -23 68 0 71 1 50 16 -22 15 -23 20 -23 204
0 210 6 194 -69 180z"/>
<path d="M6160 5040 c-28 -5 -31 -8 -17 -14 15 -7 17 -26 17 -183 0 -156 -2
-177 -17 -189 -16 -12 -9 -13 50 -14 38 0 67 4 67 10 0 6 -4 10 -10 10 -6 0
-10 38 -10 94 0 85 2 98 23 122 14 16 29 24 35 20 15 -9 17 -236 2 -236 -5 0
-10 -4 -10 -10 0 -6 27 -10 60 -10 33 0 60 4 60 10 0 6 -4 10 -10 10 -6 0 -10
40 -10 101 0 95 -9 135 -34 151 -19 13 -66 9 -91 -8 l-25 -16 0 81 c0 90 3 88
-80 71z"/>
<path d="M1158 5030 c12 -5 22 -17 22 -27 0 -10 3 -67 5 -128 5 -135 -2 -215
-21 -215 -7 0 -16 -4 -19 -10 -4 -6 27 -10 84 -10 85 0 118 11 71 23 -18 5
-20 14 -20 91 l0 86 60 0 60 0 0 -74 c0 -83 -6 -106 -26 -106 -8 0 -14 -4 -14
-10 0 -6 35 -10 85 -10 50 0 85 4 85 10 0 6 -7 10 -15 10 -8 0 -15 3 -15 8 -1
15 -2 298 -1 325 1 19 8 31 24 37 15 6 -6 9 -73 9 -89 0 -94 -1 -72 -16 20
-14 22 -24 22 -94 l0 -79 -60 0 -60 0 0 85 c0 69 3 86 18 94 12 8 -7 10 -73
10 -64 0 -83 -3 -67 -9z"/>
<path d="M3730 5026 c-28 -35 11 -93 48 -70 21 14 28 64 10 75 -20 13 -44 11
-58 -5z"/>
<path d="M5846 5018 c-13 -19 -14 -25 -2 -43 26 -39 76 -26 76 19 0 46 -48 62
-74 24z"/>
<path d="M6037 4973 c-9 -18 -34 -42 -55 -52 -31 -17 -33 -20 -14 -21 21 0 22
-3 22 -99 0 -55 4 -111 10 -126 18 -48 85 -53 108 -7 15 28 22 82 12 82 -6 0
-10 -10 -10 -23 0 -13 -7 -32 -15 -43 -25 -32 -35 0 -35 114 l0 102 30 0 c17
0 30 5 30 10 0 6 -6 10 -12 9 -40 -5 -47 1 -50 44 l-3 42 -18 -32z"/>
<path d="M1595 4895 c-28 -27 -30 -37 -15 -66 15 -26 57 -25 65 3 5 15 1 26
-14 37 -17 13 -19 19 -9 29 27 27 68 6 68 -34 0 -39 -12 -54 -61 -79 -69 -35
-91 -92 -51 -128 22 -20 83 -22 100 -5 9 9 15 9 24 0 16 -16 73 -15 87 2 17
20 28 91 13 82 -7 -4 -12 -21 -12 -37 0 -20 -4 -29 -12 -27 -9 3 -14 36 -16
106 -3 95 -4 102 -29 122 -38 30 -106 27 -138 -5z m95 -160 c0 -43 -4 -56 -18
-64 -42 -22 -60 61 -22 99 31 31 40 24 40 -35z"/>
<path d="M1848 4913 c-29 -5 -36 -17 -17 -29 15 -9 5 -210 -12 -230 -10 -12
-2 -14 50 -14 56 0 76 10 51 25 -14 9 -12 155 3 184 6 13 20 29 30 35 28 18
37 -9 37 -118 0 -82 -3 -101 -17 -112 -16 -12 -9 -13 46 -14 56 0 62 2 55 18
-4 9 -8 63 -8 119 -1 84 -5 105 -20 122 -26 28 -82 28 -113 -1 l-23 -21 0 21
c0 23 -5 24 -62 15z"/>
<path d="M2422 4913 c-31 -4 -32 -5 -17 -26 20 -29 21 -181 1 -219 l-15 -28
60 0 c33 0 59 4 59 10 0 6 -4 10 -10 10 -14 0 -13 176 1 203 14 25 28 37 47
37 9 0 12 -31 12 -120 0 -73 -4 -120 -10 -120 -5 0 -10 -4 -10 -10 0 -5 25
-10 55 -10 51 0 69 10 45 25 -5 3 -10 46 -10 95 0 79 3 92 23 116 14 16 29 24
35 20 17 -10 16 -228 0 -244 -9 -9 1 -12 44 -12 31 0 60 5 63 10 3 6 2 10 -3
10 -5 0 -11 49 -14 110 -4 88 -8 114 -23 130 -23 26 -74 26 -107 1 -24 -19
-24 -19 -36 0 -15 23 -74 26 -96 4 -8 -8 -17 -15 -20 -15 -3 0 -6 7 -6 15 0
15 -5 15 -68 8z"/>
<path d="M2852 4897 c-25 -27 -28 -59 -7 -77 18 -15 45 -10 59 13 9 14 7 21
-12 36 -21 15 -22 19 -8 30 23 19 49 9 57 -21 12 -44 0 -65 -49 -88 -26 -12
-52 -30 -59 -39 -17 -23 -16 -77 3 -95 18 -18 66 -21 96 -5 14 8 23 8 31 0 15
-15 59 -14 80 2 20 14 35 77 19 77 -6 0 -12 -11 -14 -25 -2 -14 -7 -27 -13
-28 -6 -1 -11 39 -13 100 -3 96 -4 103 -29 123 -37 29 -112 28 -141 -3z m88
-168 c0 -57 -1 -60 -22 -57 -19 2 -24 10 -26 45 -2 33 1 44 20 57 12 9 24 16
25 16 2 0 3 -27 3 -61z"/>
<path d="M3405 4898 c-70 -55 -74 -173 -9 -233 21 -19 38 -25 73 -25 54 1 77
15 92 59 14 40 -6 67 -40 56 -23 -7 -29 -43 -10 -62 16 -16 2 -33 -27 -33 -19
0 -28 8 -40 35 -7 19 -14 46 -14 60 0 24 2 25 70 25 75 0 75 0 64 59 -15 76
-99 107 -159 59z m85 -17 c5 -11 10 -36 10 -55 0 -34 -2 -36 -35 -36 -30 0
-35 3 -35 24 0 36 21 86 36 86 7 0 18 -9 24 -19z"/>
<path d="M3736 4911 c-35 -5 -38 -7 -23 -20 15 -11 17 -36 17 -171 0 -87 -3
-165 -6 -174 -3 -9 -17 -16 -30 -16 -26 0 -33 17 -10 26 39 15 23 64 -20 64
-35 0 -52 -41 -31 -73 32 -49 125 -40 152 14 20 38 22 360 3 358 -7 -1 -31 -5
-52 -8z"/>
<path d="M3905 4898 c-73 -57 -74 -194 -1 -242 30 -19 104 -21 129 -2 9 7 22
27 28 45 13 38 -2 64 -35 59 -24 -3 -34 -42 -16 -63 16 -19 4 -35 -26 -35 -19
0 -28 8 -40 35 -7 19 -14 46 -14 60 0 24 2 25 70 25 80 0 84 6 54 81 -25 61
-96 79 -149 37z m85 -24 c6 -14 10 -39 10 -55 0 -27 -3 -29 -35 -29 -32 0 -35
2 -35 30 0 38 19 80 37 80 7 0 18 -12 23 -26z"/>
<path d="M4068 4915 c-4 -4 1 -15 12 -24 10 -9 38 -69 61 -134 24 -64 48 -116
54 -114 5 2 23 38 39 81 16 42 32 73 36 69 5 -4 19 -39 33 -78 13 -38 29 -71
34 -72 11 -4 30 39 70 157 14 41 34 82 44 92 10 9 19 19 19 22 0 10 -79 7 -85
-4 -3 -5 1 -10 9 -10 10 0 16 -9 16 -21 0 -25 -32 -119 -40 -119 -13 0 -49
125 -40 134 20 20 9 26 -43 26 -61 0 -73 -7 -53 -29 24 -28 26 -55 7 -96 l-18
-40 -22 50 c-13 28 -24 62 -25 77 0 18 -7 28 -16 28 -8 0 -31 3 -50 6 -19 3
-38 3 -42 -1z"/>
<path d="M4507 4885 c-60 -62 -58 -167 4 -219 66 -56 174 -19 167 57 -2 26 -7
32 -27 32 -34 0 -50 -28 -29 -52 20 -23 12 -43 -17 -43 -31 0 -55 35 -55 82
l0 38 66 0 67 0 -6 47 c-10 95 -104 126 -170 58z m97 -1 c3 -9 6 -33 6 -55 0
-37 -2 -39 -30 -39 -28 0 -30 3 -30 36 0 60 38 101 54 58z"/>
<path d="M4882 4913 c-29 -4 -31 -6 -17 -19 23 -23 21 -210 -2 -236 -15 -17
-13 -18 60 -18 45 0 77 4 77 10 0 6 -9 10 -19 10 -25 0 -31 19 -31 96 0 72 18
127 48 143 27 14 37 1 12 -16 -25 -18 -26 -49 -2 -62 30 -16 65 14 60 50 -3
16 -1 29 3 29 14 0 28 -27 63 -120 20 -52 41 -105 46 -118 6 -13 10 -33 10
-45 0 -30 -36 -87 -55 -87 -19 0 -19 16 0 24 36 14 4 73 -34 61 -26 -8 -34
-32 -18 -63 9 -21 21 -28 49 -30 46 -4 47 -1 118 208 29 85 59 160 67 166 22
18 15 24 -27 24 -43 0 -49 -6 -24 -24 15 -11 14 -19 -6 -84 -11 -40 -25 -70
-29 -68 -15 9 -52 136 -46 155 5 18 -1 19 -95 19 -72 -1 -105 -5 -115 -14 -18
-18 -25 -18 -25 1 0 15 -5 15 -68 8z"/>
<path d="M5410 4911 c0 -5 6 -13 13 -19 6 -6 32 -65 57 -131 25 -67 50 -121
55 -121 6 0 23 36 38 80 16 44 32 80 36 80 4 0 18 -34 31 -76 23 -72 35 -93
47 -81 3 3 24 59 48 124 43 119 59 141 89 130 13 -5 16 -24 16 -122 0 -70 -4
-115 -10 -115 -5 0 -10 -4 -10 -10 0 -6 29 -10 68 -10 61 1 65 2 48 15 -17 13
-20 29 -20 137 l-1 122 -93 2 c-53 2 -92 -1 -92 -6 0 -6 5 -10 10 -10 6 0 10
-9 10 -21 0 -27 -30 -119 -39 -119 -13 0 -51 124 -41 134 20 20 9 26 -44 26
-53 0 -78 -11 -56 -25 22 -14 29 -53 17 -89 -7 -19 -16 -36 -21 -36 -12 -2
-58 111 -52 126 3 7 -10 14 -32 18 -51 8 -72 7 -72 -3z"/>
</g>
</svg>
